<?xml version="1.0" encoding="UTF-8" standalone="no"?>
<!-- Created with Inkscape (http://www.inkscape.org/) -->

<svg
   xmlns:dc="http://purl.org/dc/elements/1.1/"
   xmlns:cc="http://creativecommons.org/ns#"
   xmlns:rdf="http://www.w3.org/1999/02/22-rdf-syntax-ns#"
   xmlns:svg="http://www.w3.org/2000/svg"
   xmlns="http://www.w3.org/2000/svg"
   xmlns:sodipodi="http://sodipodi.sourceforge.net/DTD/sodipodi-0.dtd"
   xmlns:inkscape="http://www.inkscape.org/namespaces/inkscape"
   width="1000"
   height="1000"
   id="svg3785"
   version="1.1"
   inkscape:version="0.48.3.1 r9886"
   sodipodi:docname="cart-proto.svg">
  <defs
     id="defs5498" />
  <sodipodi:namedview
     inkscape:window-height="744"
     inkscape:window-width="1317"
     inkscape:pageshadow="2"
     inkscape:pageopacity="0.0"
     borderopacity="1.0"
     bordercolor="#666666"
     pagecolor="#ffffff"
     id="base"
     showgrid="true"
     showguides="true"
     inkscape:guide-bbox="true"
     inkscape:zoom="0.454"
     inkscape:cx="307.84312"
     inkscape:cy="461.68"
     inkscape:window-x="49"
     inkscape:window-y="24"
     inkscape:current-layer="g3954"
     inkscape:window-maximized="1">
    <sodipodi:guide
       orientation="horizontal"
       position="200"
       id="guide5596" />
    <inkscape:grid
       empspacing="4"
       visible="true"
       enabled="true"
       snapvisiblegridlinesonly="true"
       spacingx="25px"
       spacingy="25px"
       type="xygrid"
       id="grid3792" />
  </sodipodi:namedview>
  <metadata
     id="metadata5594">
    <rdf:RDF>
      <cc:Work
         rdf:about="">
        <dc:format>image/svg+xml</dc:format>
        <dc:type
           rdf:resource="http://purl.org/dc/dcmitype/StillImage" />
        <dc:title></dc:title>
      </cc:Work>
    </rdf:RDF>
  </metadata>
  <g
     inkscape:label="Layer 1"
     inkscape:groupmode="layer"
     id="layer1">
    <g
       transform="translate(-25,-1127.3622)"
       id="g3954"
       style="stroke-width:100;stroke-miterlimit:4;stroke-dasharray:none">
      <path
         sodipodi:type="arc"
         style="fill:#008000;fill-opacity:1;stroke:#ff0000;stroke-width:0;stroke-linecap:round;stroke-miterlimit:4;stroke-opacity:1;stroke-dasharray:none"
         sodipodi:cx="-737.5"
         sodipodi:cy="412.5"
         sodipodi:rx="62.5"
         sodipodi:ry="62.5"
         d="m -675,412.5 a 62.5,62.5 0 1 1 -125,0 62.5,62.5 0 1 1 125,0 z"
         transform="matrix(1.4,0,0,1.4,1420,1294.8622)"
         id="path10" />
      <path
         id="path3040"
         sodipodi:type="arc"
         style="fill:#008000;fill-opacity:1;stroke:#ff0000;stroke-width:0;stroke-linecap:round;stroke-miterlimit:4;stroke-opacity:1;stroke-dasharray:none"
         sodipodi:cx="-737.5"
         sodipodi:cy="412.5"
         sodipodi:rx="62.5"
         sodipodi:ry="62.5"
         d="m -675,412.5 a 62.5,62.5 0 1 1 -125,0 62.5,62.5 0 1 1 125,0 z"
         transform="matrix(1.4,0,0,1.4,1695,1294.8622)" />
      <path
         style="font-size:medium;font-style:normal;font-variant:normal;font-weight:normal;font-stretch:normal;text-indent:0;text-align:start;text-decoration:none;line-height:normal;letter-spacing:normal;word-spacing:normal;text-transform:none;direction:ltr;block-progression:tb;writing-mode:lr-tb;text-anchor:start;baseline-shift:baseline;color:#000000;fill:#008000;fill-opacity:1;stroke:none;stroke-width:100;marker:none;visibility:visible;display:inline;overflow:visible;enable-background:accumulate;font-family:Sans;-inkscape-font-specification:Sans"
         d="m 200,1422.375 a 50.005,50.005 0 1 0 0,100 l 63.96875,0 11.0625,33.25 a 50.005,50.005 0 0 0 4.90625,14.7188 l 72.625,217.8437 A 50.005,50.005 0 0 0 400,1822.375 l 250,0 a 50.005,50.005 0 0 0 47.4375,-34.1875 l 72.5,-217.5 a 50.005,50.005 0 0 0 -2.46875,-50.7187 50.005,50.005 0 0 0 -2.09375,-2.9688 50.005,50.005 0 0 0 -1.78125,-2.2812 50.005,50.005 0 0 0 -0.125,-0.1563 50.005,50.005 0 0 0 -0.125,-0.1563 50.005,50.005 0 0 0 -46,-17.0312 l -356.3125,0 -13.59375,-40.8125 A 50.005,50.005 0 0 0 300,1422.375 l -100,0 z m 194.375,175 261.25,0 -41.65625,125 -177.9375,0 -41.65625,-125 z"
         id="path3049"
         inkscape:connector-curvature="0" />
    </g>
  </g>
</svg>
