<?xml version="1.0" encoding="UTF-8" standalone="no"?>
<!-- Created with Inkscape (http://www.inkscape.org/) -->

<svg
   xmlns:dc="http://purl.org/dc/elements/1.1/"
   xmlns:cc="http://creativecommons.org/ns#"
   xmlns:rdf="http://www.w3.org/1999/02/22-rdf-syntax-ns#"
   xmlns:svg="http://www.w3.org/2000/svg"
   xmlns="http://www.w3.org/2000/svg"
   xmlns:sodipodi="http://sodipodi.sourceforge.net/DTD/sodipodi-0.dtd"
   xmlns:inkscape="http://www.inkscape.org/namespaces/inkscape"
   width="1000"
   height="1000"
   id="svg3785"
   version="1.1"
   inkscape:version="0.48.3.1 r9886"
   sodipodi:docname="e-proto.svg">
  <defs
     id="defs5498" />
  <sodipodi:namedview
     inkscape:window-height="744"
     inkscape:window-width="1317"
     inkscape:pageshadow="2"
     inkscape:pageopacity="0.0"
     borderopacity="1.0"
     bordercolor="#666666"
     pagecolor="#ffffff"
     id="base"
     showgrid="true"
     showguides="true"
     inkscape:guide-bbox="true"
     inkscape:zoom="0.32102648"
     inkscape:cx="-531.43126"
     inkscape:cy="504.56186"
     inkscape:window-x="49"
     inkscape:window-y="24"
     inkscape:current-layer="g3954"
     inkscape:window-maximized="1">
    <sodipodi:guide
       orientation="horizontal"
       position="200"
       id="guide5596" />
    <inkscape:grid
       empspacing="4"
       visible="true"
       enabled="true"
       snapvisiblegridlinesonly="true"
       spacingx="25px"
       spacingy="25px"
       type="xygrid"
       id="grid3792" />
  </sodipodi:namedview>
  <metadata
     id="metadata5594">
    <rdf:RDF>
      <cc:Work
         rdf:about="">
        <dc:format>image/svg+xml</dc:format>
        <dc:type
           rdf:resource="http://purl.org/dc/dcmitype/StillImage" />
        <dc:title></dc:title>
      </cc:Work>
    </rdf:RDF>
  </metadata>
  <g
     inkscape:label="Layer 1"
     inkscape:groupmode="layer"
     id="layer1">
    <g
       transform="translate(-25,-1127.3622)"
       id="g3954"
       style="stroke-width:100;stroke-miterlimit:4;stroke-dasharray:none">
      <path
         style="font-size:medium;font-style:normal;font-variant:normal;font-weight:normal;font-stretch:normal;text-indent:0;text-align:start;text-decoration:none;line-height:normal;letter-spacing:normal;word-spacing:normal;text-transform:none;direction:ltr;block-progression:tb;writing-mode:lr-tb;text-anchor:start;baseline-shift:baseline;color:#000000;fill:#008000;fill-opacity:1;stroke:none;stroke-width:101.07343292000000190;marker:none;visibility:visible;display:inline;overflow:visible;enable-background:accumulate;font-family:Sans;-inkscape-font-specification:Sans"
         d="m 525,1427.375 c -99.72156,0 -197.50545,85.2353 -199.28125,220.5312 a 50.54177,50.54177 0 0 0 -0.0937,3.7188 l 0,14.4375 a 50.54177,50.54177 0 0 0 0,22.7813 l 0,14.25 a 50.54177,50.54177 0 0 0 0.1875,5.2812 c 1.97905,107.0292 63.05554,184.5918 139.15625,209.4375 77.3637,25.2581 168.21749,-0.7038 219.09375,-74.25 a 50.54177,50.54177 0 1 0 -83.09375,-57.5 c -25.57991,36.9781 -67.92051,47.6709 -104.625,35.6875 -32.37195,-10.5689 -61.77862,-36.3229 -68.28125,-93.8438 l 246.40625,0 A 50.54177,50.54177 0 0 0 725,1676.1562 l -0.625,-25.75 a 50.54177,50.54177 0 0 0 -0.0313,-0.6562 C 723.44247,1513.3787 625.17647,1427.375 525,1427.375 z m 0,101.0625 c 43.65297,0 88.71998,23.9659 96.875,98.375 l -193.75,0 c 8.15502,-74.4091 53.22203,-98.375 96.875,-98.375 z"
         id="path3011"
         inkscape:connector-curvature="0" />
    </g>
  </g>
</svg>
