<?xml version="1.0" encoding="UTF-8" standalone="no"?>
<!-- Created with Inkscape (http://www.inkscape.org/) -->

<svg
   xmlns:dc="http://purl.org/dc/elements/1.1/"
   xmlns:cc="http://creativecommons.org/ns#"
   xmlns:rdf="http://www.w3.org/1999/02/22-rdf-syntax-ns#"
   xmlns:svg="http://www.w3.org/2000/svg"
   xmlns="http://www.w3.org/2000/svg"
   xmlns:sodipodi="http://sodipodi.sourceforge.net/DTD/sodipodi-0.dtd"
   xmlns:inkscape="http://www.inkscape.org/namespaces/inkscape"
   width="1000"
   height="1000"
   id="svg3785"
   version="1.1"
   inkscape:version="0.48.3.1 r9886"
   sodipodi:docname="g-proto.svg">
  <defs
     id="defs5498" />
  <sodipodi:namedview
     inkscape:window-height="744"
     inkscape:window-width="1317"
     inkscape:pageshadow="2"
     inkscape:pageopacity="0.0"
     borderopacity="1.0"
     bordercolor="#666666"
     pagecolor="#ffffff"
     id="base"
     showgrid="true"
     showguides="true"
     inkscape:guide-bbox="true"
     inkscape:zoom="0.454"
     inkscape:cx="912.85774"
     inkscape:cy="438.87357"
     inkscape:window-x="49"
     inkscape:window-y="24"
     inkscape:current-layer="layer1"
     inkscape:window-maximized="1">
    <sodipodi:guide
       orientation="horizontal"
       position="200"
       id="guide5596" />
    <inkscape:grid
       empspacing="4"
       visible="true"
       enabled="true"
       snapvisiblegridlinesonly="true"
       spacingx="25px"
       spacingy="25px"
       type="xygrid"
       id="grid3792" />
  </sodipodi:namedview>
  <metadata
     id="metadata5594">
    <rdf:RDF>
      <cc:Work
         rdf:about="">
        <dc:format>image/svg+xml</dc:format>
        <dc:type
           rdf:resource="http://purl.org/dc/dcmitype/StillImage" />
        <dc:title></dc:title>
      </cc:Work>
    </rdf:RDF>
  </metadata>
  <g
     inkscape:label="Layer 1"
     inkscape:groupmode="layer"
     id="layer1">
    <path
       style="font-size:medium;font-style:normal;font-variant:normal;font-weight:normal;font-stretch:normal;text-indent:0;text-align:start;text-decoration:none;line-height:normal;letter-spacing:normal;word-spacing:normal;text-transform:none;direction:ltr;block-progression:tb;writing-mode:lr-tb;text-anchor:start;baseline-shift:baseline;color:#000000;fill:#008000;fill-opacity:1;stroke:none;stroke-width:100;marker:none;visibility:visible;display:inline;overflow:visible;enable-background:accumulate;font-family:Sans;-inkscape-font-specification:Sans"
       d="m 500,300 c -55.65476,0 -103.67087,21.37057 -135,54.9375 -31.32913,33.56693 -46.25,77.14583 -46.25,120.0625 0,42.91667 14.92087,86.49557 46.25,120.0625 16.62512,17.81263 38.05022,32.0499 62.71875,41.625 L 338.9375,740.21875 C 305.24446,763.08131 281.25,797.80136 281.25,837.5 c 0,43.30357 28.43208,80.8458 67,103.34375 37.78628,22.042 87.05842,33.59991 148.03125,34.0625 A 50.005,50.005 0 0 0 500,975 c 62.73148,0 113.18208,-11.6583 151.75,-34.15625 38.56792,-22.49795 67,-60.04018 67,-103.34375 0,-43.30357 -28.43208,-80.8458 -67,-103.34375 C 614.23958,712.27517 565.38828,700.74612 505.03125,700.125 l 49.3125,-57.53125 C 586.66265,633.65199 614.46676,617.0624 635,595.0625 666.32913,561.49557 681.25,517.91667 681.25,475 c 0,-42.91667 -14.92087,-86.49557 -46.25,-120.0625 -30.61333,-32.8 -77.18169,-53.8938 -131.21875,-54.84375 A 50.005,50.005 0 0 0 500,300 z m 0,100 c 31.84524,0 49.45413,9.87943 61.875,23.1875 12.42087,13.30807 19.375,32.22917 19.375,51.8125 0,19.58333 -6.95413,38.50443 -19.375,51.8125 C 549.45413,540.12057 531.84524,550 500,550 468.15476,550 450.54587,540.12057 438.125,526.8125 425.70413,513.50443 418.75,494.58333 418.75,475 c 0,-19.58333 6.95413,-38.50443 19.375,-51.8125 C 450.54587,409.87943 468.15476,400 500,400 z m 0,400 c 49.76852,0 83.69292,10.2167 101.375,20.53125 17.68208,10.31455 17.375,16.52232 17.375,16.96875 0,0.44643 0.30708,6.6542 -17.375,16.96875 C 583.69292,864.7833 549.76852,875 500,875 450.23148,875 416.30708,864.7833 398.625,854.46875 380.94292,844.1542 381.25,837.94643 381.25,837.5 c 0,-0.44643 -0.30708,-6.6542 17.375,-16.96875 C 416.30708,810.2167 450.23148,800 500,800 z"
       id="path3021-7-4-0"
       inkscape:connector-curvature="0" />
  </g>
</svg>
