<?xml version="1.0" encoding="UTF-8" standalone="no"?>
<!-- Created with Inkscape (http://www.inkscape.org/) -->

<svg
   xmlns:dc="http://purl.org/dc/elements/1.1/"
   xmlns:cc="http://creativecommons.org/ns#"
   xmlns:rdf="http://www.w3.org/1999/02/22-rdf-syntax-ns#"
   xmlns:svg="http://www.w3.org/2000/svg"
   xmlns="http://www.w3.org/2000/svg"
   xmlns:sodipodi="http://sodipodi.sourceforge.net/DTD/sodipodi-0.dtd"
   xmlns:inkscape="http://www.inkscape.org/namespaces/inkscape"
   width="1000"
   height="1000"
   id="svg3785"
   version="1.1"
   inkscape:version="0.48.3.1 r9886"
   sodipodi:docname="g-alt.svg">
  <defs
     id="defs5498" />
  <sodipodi:namedview
     inkscape:window-height="744"
     inkscape:window-width="1317"
     inkscape:pageshadow="2"
     inkscape:pageopacity="0.0"
     borderopacity="1.0"
     bordercolor="#666666"
     pagecolor="#ffffff"
     id="base"
     showgrid="true"
     showguides="true"
     inkscape:guide-bbox="true"
     inkscape:zoom="0.454"
     inkscape:cx="581.71501"
     inkscape:cy="291.22886"
     inkscape:window-x="49"
     inkscape:window-y="24"
     inkscape:current-layer="g3954"
     inkscape:window-maximized="1">
    <sodipodi:guide
       orientation="horizontal"
       position="200"
       id="guide5596" />
    <inkscape:grid
       empspacing="4"
       visible="true"
       enabled="true"
       snapvisiblegridlinesonly="true"
       spacingx="12.5px"
       spacingy="12.5px"
       type="xygrid"
       id="grid3792" />
  </sodipodi:namedview>
  <metadata
     id="metadata5594">
    <rdf:RDF>
      <cc:Work
         rdf:about="">
        <dc:format>image/svg+xml</dc:format>
        <dc:type
           rdf:resource="http://purl.org/dc/dcmitype/StillImage" />
        <dc:title />
      </cc:Work>
    </rdf:RDF>
  </metadata>
  <g
     inkscape:label="Layer 1"
     inkscape:groupmode="layer"
     id="layer1">
    <g
       transform="translate(-25,-1127.3622)"
       id="g3954"
       style="stroke-width:100;stroke-miterlimit:4;stroke-dasharray:none">
      <path
         style="font-size:medium;font-style:normal;font-variant:normal;font-weight:normal;font-stretch:normal;text-indent:0;text-align:start;text-decoration:none;line-height:normal;letter-spacing:normal;word-spacing:normal;text-transform:none;direction:ltr;block-progression:tb;writing-mode:lr-tb;text-anchor:start;baseline-shift:baseline;color:#000000;fill:#008000;fill-opacity:1;stroke:none;stroke-width:100;marker:none;visibility:visible;display:inline;overflow:visible;enable-background:accumulate;font-family:Sans;-inkscape-font-specification:Sans"
         d="M 675.5,1426.5625 A 50.005,50.005 0 0 0 630.15625,1455 C 597.91534,1436.2899 561.27619,1427.375 525,1427.375 c -48.61111,0 -97.90966,15.9614 -136.34375,50.125 -37.65274,33.4691 -62.56268,85.2385 -63.5625,146.0938 A 50.005,50.005 0 0 0 325,1627.375 c 0,51.5816 17.2047,96.7777 44.8125,130.2188 -1.61046,4.5026 -3.02319,8.1633 -4.75,13.3437 -6.77705,20.3311 -15.0625,39.7708 -15.0625,68.9375 0,29.1667 10.04054,47.4873 17.78125,62.9688 0.17286,0.3457 0.3271,0.6268 0.5,0.9687 -26.62852,23.2442 -43.96875,55.1993 -43.96875,89.5625 0,40.9226 24.40978,78.5404 60.0625,101.9375 34.89673,22.901 80.72629,34.965 136.375,35.4687 1.20555,0.011 2.34768,0.094 3.5625,0.094 57.29167,0 104.28478,-12.1654 139.9375,-35.5625 35.65272,-23.3971 60.0625,-61.0149 60.0625,-101.9375 0,-40.9226 -24.40978,-78.5717 -60.0625,-101.9688 -34.83043,-22.8574 -80.55704,-34.8906 -136.0625,-35.4374 a 50.005,50.005 0 0 0 -3.875,-0.094 c -23.43296,0 -45.05371,2.1228 -64.96875,6.125 -0.75367,-1.4056 -1.34412,-2.3132 -2.125,-3.875 -3.7339,-7.4678 -6.01742,-16.897 -6.84375,-18.6562 0.78731,-2.5992 2.84359,-12.6125 5.65625,-23.4376 22.3089,7.5553 45.70899,11.3438 68.96875,11.3438 48.61111,0 97.90966,-15.9926 136.34375,-50.1562 37.66358,-33.4788 62.57619,-85.247 63.5625,-146.125 A 50.005,50.005 0 0 0 725,1627.375 c 0,-32.3677 -6.79499,-62.2215 -18.65625,-88.25 a 50.005,50.005 0 0 0 3.59375,-8.5 l 12.5,-37.5938 A 50.005,50.005 0 0 0 675.5,1426.5625 z M 525,1527.375 c 26.38889,0 52.09034,9.0074 69.90625,24.8438 C 612.72216,1568.0551 625,1589.875 625,1627.375 c 0,37.5 -12.27784,59.2886 -30.09375,75.125 -17.81591,15.8364 -43.51736,24.875 -69.90625,24.875 -26.38889,0 -52.09034,-9.0386 -69.90625,-24.875 C 437.27784,1686.6636 425,1664.875 425,1627.375 c 0,-37.5 12.27784,-59.3199 30.09375,-75.1562 17.81591,-15.8364 43.51736,-24.8438 69.90625,-24.8438 z m -0.6875,428.5 c 42.70833,0 70.71522,9.7096 85.0625,19.125 14.34728,9.4154 14.9375,15.5476 14.9375,18.375 0,2.8274 -0.59022,8.9283 -14.9375,18.3438 -14.34728,9.4154 -42.35417,19.1562 -85.0625,19.1562 -42.70833,0 -70.71522,-9.7408 -85.0625,-19.1562 -14.34728,-9.4155 -14.9375,-15.5164 -14.9375,-18.3438 0,-2.8274 0.59022,-8.9596 14.9375,-18.375 14.34728,-9.4154 42.35417,-19.125 85.0625,-19.125 z"
         id="path3264"
         inkscape:connector-curvature="0" />
    </g>
  </g>
</svg>
