<?xml version="1.0" encoding="UTF-8" standalone="no"?>
<!-- Created with Inkscape (http://www.inkscape.org/) -->

<svg
   xmlns:dc="http://purl.org/dc/elements/1.1/"
   xmlns:cc="http://creativecommons.org/ns#"
   xmlns:rdf="http://www.w3.org/1999/02/22-rdf-syntax-ns#"
   xmlns:svg="http://www.w3.org/2000/svg"
   xmlns="http://www.w3.org/2000/svg"
   xmlns:sodipodi="http://sodipodi.sourceforge.net/DTD/sodipodi-0.dtd"
   xmlns:inkscape="http://www.inkscape.org/namespaces/inkscape"
   width="1000"
   height="1000"
   id="svg3785"
   version="1.1"
   inkscape:version="0.48.3.1 r9886"
   sodipodi:docname="m-proto.svg">
  <defs
     id="defs5498" />
  <sodipodi:namedview
     inkscape:window-height="744"
     inkscape:window-width="1317"
     inkscape:pageshadow="2"
     inkscape:pageopacity="0.0"
     borderopacity="1.0"
     bordercolor="#666666"
     pagecolor="#ffffff"
     id="base"
     showgrid="true"
     showguides="true"
     inkscape:guide-bbox="true"
     inkscape:zoom="0.58195"
     inkscape:cx="176.59"
     inkscape:cy="559.8"
     inkscape:window-x="49"
     inkscape:window-y="24"
     inkscape:current-layer="g3954"
     inkscape:window-maximized="1">
    <sodipodi:guide
       orientation="horizontal"
       position="200"
       id="guide5596" />
    <inkscape:grid
       empspacing="4"
       visible="true"
       enabled="true"
       snapvisiblegridlinesonly="true"
       spacingx="25px"
       spacingy="25px"
       type="xygrid"
       id="grid3792" />
  </sodipodi:namedview>
  <metadata
     id="metadata5594">
    <rdf:RDF>
      <cc:Work
         rdf:about="">
        <dc:format>image/svg+xml</dc:format>
        <dc:type
           rdf:resource="http://purl.org/dc/dcmitype/StillImage" />
        <dc:title></dc:title>
      </cc:Work>
    </rdf:RDF>
  </metadata>
  <g
     inkscape:label="Layer 1"
     inkscape:groupmode="layer"
     id="layer1">
    <g
       transform="translate(-25,-1127.3622)"
       id="g3954"
       style="stroke-width:100;stroke-miterlimit:4;stroke-dasharray:none">
      <path
         style="font-size:medium;font-style:normal;font-variant:normal;font-weight:normal;font-stretch:normal;text-indent:0;text-align:start;text-decoration:none;line-height:normal;letter-spacing:normal;word-spacing:normal;text-transform:none;direction:ltr;block-progression:tb;writing-mode:lr-tb;text-anchor:start;baseline-shift:baseline;color:#000000;fill:#008000;fill-opacity:1;stroke:none;stroke-width:100;marker:none;visibility:visible;display:inline;overflow:visible;enable-background:accumulate;font-family:Sans;-inkscape-font-specification:Sans"
         d="m 274.47,1426.9 a 50.005,50.005 0 0 0 -34.81,85.9 l 35.34,35.3 0,29.3 0,300 a 50.005,50.005 0 1 0 100,0 l 0,-300 c 0,-16.7 4.45,-29.7 10.28,-36.7 5.83,-7 13.33,-13.3 39.72,-13.3 -1.03,0 13.53,5.8 26.75,24.1 12.98,18.1 22.18,44.3 23.25,54.2 l 0,246.7 a 50.005,50.005 0 1 0 100,0 l 0,-246.7 c 1.07,-9.9 10.27,-36.1 23.25,-54.2 13.22,-18.3 27.78,-24.1 26.75,-24.1 26.39,0 33.89,6.3 39.72,13.3 5.83,7 10.28,20 10.28,36.7 l 0,300 a 50.005,50.005 0 1 0 100,0 l 0,-300 c 0,-33.3 -8.05,-70.2 -33.47,-100.7 -24.49,-29.4 -64.91,-47.7 -111.31,-49 a 50.005,50.005 0 0 0 -5.22,-0.3 50.005,50.005 0 0 0 -5.12,0.2 c -42.82,1.9 -72.9,27.5 -94.88,55.1 -22.06,-27.7 -52.28,-53.4 -95.34,-55.1 a 50.005,50.005 0 0 0 -4.66,-0.2 50.005,50.005 0 0 0 -5.56,0.3 c -35.95,1 -68.17,12.4 -92.25,31.2 L 310.34,1442 a 50.005,50.005 0 0 0 -35.87,-15.1 z"
         id="path2990-8-9"
         inkscape:connector-curvature="0" />
    </g>
  </g>
</svg>
