<?xml version="1.0" encoding="UTF-8" standalone="no"?>
<!-- Created with Inkscape (http://www.inkscape.org/) -->

<svg
   xmlns:dc="http://purl.org/dc/elements/1.1/"
   xmlns:cc="http://creativecommons.org/ns#"
   xmlns:rdf="http://www.w3.org/1999/02/22-rdf-syntax-ns#"
   xmlns:svg="http://www.w3.org/2000/svg"
   xmlns="http://www.w3.org/2000/svg"
   xmlns:sodipodi="http://sodipodi.sourceforge.net/DTD/sodipodi-0.dtd"
   xmlns:inkscape="http://www.inkscape.org/namespaces/inkscape"
   width="1000"
   height="1000"
   id="svg3785"
   version="1.1"
   inkscape:version="0.48.3.1 r9886"
   sodipodi:docname="mag-proto.svg">
  <defs
     id="defs5498" />
  <sodipodi:namedview
     inkscape:window-height="744"
     inkscape:window-width="1317"
     inkscape:pageshadow="2"
     inkscape:pageopacity="0.0"
     borderopacity="1.0"
     bordercolor="#666666"
     pagecolor="#ffffff"
     id="base"
     showgrid="true"
     showguides="true"
     inkscape:guide-bbox="true"
     inkscape:zoom="0.454"
     inkscape:cx="431.11"
     inkscape:cy="461.68"
     inkscape:window-x="49"
     inkscape:window-y="24"
     inkscape:current-layer="g3954"
     inkscape:window-maximized="1">
    <sodipodi:guide
       orientation="horizontal"
       position="200"
       id="guide5596" />
    <inkscape:grid
       empspacing="4"
       visible="true"
       enabled="true"
       snapvisiblegridlinesonly="true"
       spacingx="25px"
       spacingy="25px"
       type="xygrid"
       id="grid3792" />
  </sodipodi:namedview>
  <metadata
     id="metadata5594">
    <rdf:RDF>
      <cc:Work
         rdf:about="">
        <dc:format>image/svg+xml</dc:format>
        <dc:type
           rdf:resource="http://purl.org/dc/dcmitype/StillImage" />
        <dc:title></dc:title>
      </cc:Work>
    </rdf:RDF>
  </metadata>
  <g
     inkscape:label="Layer 1"
     inkscape:groupmode="layer"
     id="layer1">
    <g
       transform="translate(-25,-1127.3622)"
       id="g3954"
       style="stroke-width:100;stroke-miterlimit:4;stroke-dasharray:none">
      <path
         id="path3008"
         transform="translate(25,1127.3622)"
         style="font-size:medium;font-style:normal;font-variant:normal;font-weight:normal;font-stretch:normal;text-indent:0;text-align:start;text-decoration:none;line-height:normal;letter-spacing:normal;word-spacing:normal;text-transform:none;direction:ltr;block-progression:tb;writing-mode:lr-tb;text-anchor:start;baseline-shift:baseline;color:#000000;fill:#008000;fill-opacity:1;fill-rule:nonzero;stroke:none;stroke-width:100;marker:none;visibility:visible;display:inline;overflow:visible;enable-background:accumulate;font-family:Sans;-inkscape-font-specification:Sans"
         d="m 495.5,243.71875 c -94.61906,0.22221 -188.48984,57.45052 -224.03125,146.59375 -12.7696,32.07572 -21.59311,67.11412 -21.125,101.875 -1.1911,6.25408 -1.32612,12.72481 -0.15625,19.09375 1.69233,88.982 50.59267,178.0668 132.21875,217.375 81.11379,42.08434 185.25621,35.28069 260.75,-14.90625 41.4121,41.94977 83.49128,83.30166 125.09375,125.0625 28.38286,27.2065 81.18447,5.7912 82.59375,-33.5 3.27182,-32.2021 -27.08764,-49.8372 -45.71875,-70.875 -31.25653,-30.69345 -61.72862,-62.25297 -92.9375,-93 24.12201,-39.88688 37.07362,-86.60445 37.4375,-133.1875 0.178,-1.54939 0.30264,-3.14382 0.3125,-4.75 C 752.70243,411.702 706.3201,316.7759 622.8125,274.0625 585.27012,253.8697 542.56565,243.7315 500,243.75 c -1.50204,-0.0253 -2.99811,-0.0348 -4.5,-0.0313 z m 2.59375,99.875 c 3.04204,0.008 6.09059,0.10969 9.125,0.3125 63.08555,1.0753 124.51392,45.58235 137.53125,108.71875 4.86211,14.46017 3.86353,31.06779 5.1875,46.6875 -1.70604,17.3333 0.13428,35.91387 -6.21875,52.21875 C 628.57407,615.30895 563.9421,657.8216 500,656.25 436.0579,657.8216 371.42593,615.30895 356.28125,551.53125 c -6.23009,-16.0182 -4.57301,-34.33965 -6.15625,-51.46875 -0.002,-0.0207 0.002,-0.0418 0,-0.0625 1.90318,-18.46147 -0.0855,-38.1205 7.3125,-55.5625 16.50387,-61.36381 78.80143,-101.00898 140.65625,-100.84375 z" />
    </g>
  </g>
</svg>
