<?xml version="1.0" encoding="UTF-8" standalone="no"?>
<!-- Created with Inkscape (http://www.inkscape.org/) -->

<svg
   xmlns:dc="http://purl.org/dc/elements/1.1/"
   xmlns:cc="http://creativecommons.org/ns#"
   xmlns:rdf="http://www.w3.org/1999/02/22-rdf-syntax-ns#"
   xmlns:svg="http://www.w3.org/2000/svg"
   xmlns="http://www.w3.org/2000/svg"
   xmlns:sodipodi="http://sodipodi.sourceforge.net/DTD/sodipodi-0.dtd"
   xmlns:inkscape="http://www.inkscape.org/namespaces/inkscape"
   width="1000"
   height="1000"
   id="svg3785"
   version="1.1"
   inkscape:version="0.48.3.1 r9886"
   sodipodi:docname="a-proto.svg">
  <defs
     id="defs5498" />
  <sodipodi:namedview
     inkscape:window-height="744"
     inkscape:window-width="1317"
     inkscape:pageshadow="2"
     inkscape:pageopacity="0.0"
     borderopacity="1.0"
     bordercolor="#666666"
     pagecolor="#ffffff"
     id="base"
     showgrid="true"
     showguides="true"
     inkscape:guide-bbox="true"
     inkscape:zoom="0.64205296"
     inkscape:cx="343.18887"
     inkscape:cy="451.82613"
     inkscape:window-x="49"
     inkscape:window-y="24"
     inkscape:current-layer="g3954"
     inkscape:window-maximized="1">
    <sodipodi:guide
       orientation="horizontal"
       position="200"
       id="guide5596" />
    <inkscape:grid
       empspacing="4"
       visible="true"
       enabled="true"
       snapvisiblegridlinesonly="true"
       spacingx="25px"
       spacingy="25px"
       type="xygrid"
       id="grid3792" />
  </sodipodi:namedview>
  <metadata
     id="metadata5594">
    <rdf:RDF>
      <cc:Work
         rdf:about="">
        <dc:format>image/svg+xml</dc:format>
        <dc:type
           rdf:resource="http://purl.org/dc/dcmitype/StillImage" />
        <dc:title></dc:title>
      </cc:Work>
    </rdf:RDF>
  </metadata>
  <g
     inkscape:label="Layer 1"
     inkscape:groupmode="layer"
     id="layer1">
    <g
       transform="translate(-25,-1127.3622)"
       id="g3954"
       style="stroke-width:100;stroke-miterlimit:4;stroke-dasharray:none">
      <path
         inkscape:connector-curvature="0"
         d="M 540.13335,1302.4484 C 363.87504,1302.4484 275,1425.0918 275,1527.3622 c 0,61.9236 24.15792,117.014 75.97022,137.5455 8.49727,3.3713 16.10575,0.1174 18.5702,-9.0114 1.71566,-6.3183 5.77041,-22.2603 7.5811,-28.8928 2.48311,-9.0287 1.52205,-12.1941 -5.33476,-20.0672 -14.93883,-17.104 -24.48812,-39.2453 -24.48812,-70.6052 0,-90.9888 70.14331,-172.4403 182.65271,-172.4403 99.6227,0 154.35536,59.0788 154.35536,137.9787 0,103.8096 -47.33643,191.4245 -117.61211,191.4245 -38.80942,0 -67.86077,-31.1499 -58.54828,-69.3521 11.15065,-45.6107 32.75037,-94.8333 32.75037,-127.7585 0,-29.4693 -16.29876,-54.049 -50.03583,-54.049 -39.67779,0 -71.54407,39.8316 -71.54407,93.1908 0,33.9841 11.83412,56.9691 11.83412,56.9691 0,0 -40.60034,166.9533 -47.71897,196.1917 -14.17378,58.2248 -2.13032,129.6063 -1.11211,136.8179 0.59483,4.2709 6.25559,5.2903 8.81567,2.0583 3.65878,-4.6404 50.90825,-61.2517 66.97265,-117.8189 4.54455,-16.0194 26.10114,-98.9636 26.10114,-98.9636 12.88905,23.8594 50.55954,44.8768 90.61809,44.8768 C 694.0863,1755.4565 775,1649.9406 775,1508.7055 775,1401.9096 681.78973,1302.4484 540.13335,1302.4484"
         style="fill:#008000;fill-opacity:1;fill-rule:nonzero;stroke:none"
         id="path22" />
    </g>
  </g>
</svg>
