<?xml version="1.0" encoding="UTF-8" standalone="no"?>
<!-- Created with Inkscape (http://www.inkscape.org/) -->

<svg
   xmlns:dc="http://purl.org/dc/elements/1.1/"
   xmlns:cc="http://creativecommons.org/ns#"
   xmlns:rdf="http://www.w3.org/1999/02/22-rdf-syntax-ns#"
   xmlns:svg="http://www.w3.org/2000/svg"
   xmlns="http://www.w3.org/2000/svg"
   xmlns:sodipodi="http://sodipodi.sourceforge.net/DTD/sodipodi-0.dtd"
   xmlns:inkscape="http://www.inkscape.org/namespaces/inkscape"
   width="1000"
   height="1000"
   id="svg3785"
   version="1.1"
   inkscape:version="0.48.3.1 r9886"
   sodipodi:docname="y-alt-proto.svg">
  <defs
     id="defs5498" />
  <sodipodi:namedview
     inkscape:window-height="744"
     inkscape:window-width="1317"
     inkscape:pageshadow="2"
     inkscape:pageopacity="0.0"
     borderopacity="1.0"
     bordercolor="#666666"
     pagecolor="#ffffff"
     id="base"
     showgrid="true"
     showguides="true"
     inkscape:guide-bbox="true"
     inkscape:zoom="0.31764505"
     inkscape:cx="497.09673"
     inkscape:cy="188.65817"
     inkscape:window-x="49"
     inkscape:window-y="24"
     inkscape:current-layer="g3954"
     inkscape:window-maximized="1">
    <sodipodi:guide
       orientation="horizontal"
       position="200"
       id="guide5596" />
    <inkscape:grid
       empspacing="4"
       visible="true"
       enabled="true"
       snapvisiblegridlinesonly="true"
       spacingx="12.5px"
       spacingy="12.5px"
       type="xygrid"
       id="grid3792" />
  </sodipodi:namedview>
  <metadata
     id="metadata5594">
    <rdf:RDF>
      <cc:Work
         rdf:about="">
        <dc:format>image/svg+xml</dc:format>
        <dc:type
           rdf:resource="http://purl.org/dc/dcmitype/StillImage" />
        <dc:title></dc:title>
      </cc:Work>
    </rdf:RDF>
  </metadata>
  <g
     inkscape:label="Layer 1"
     inkscape:groupmode="layer"
     id="layer1">
    <g
       transform="translate(-25,-1127.3622)"
       id="g3954"
       style="stroke-width:100;stroke-miterlimit:4;stroke-dasharray:none">
      <path
         style="font-size:medium;font-style:normal;font-variant:normal;font-weight:normal;font-stretch:normal;text-indent:0;text-align:start;text-decoration:none;line-height:normal;letter-spacing:normal;word-spacing:normal;text-transform:none;direction:ltr;block-progression:tb;writing-mode:lr-tb;text-anchor:start;baseline-shift:baseline;color:#000000;fill:#008000;fill-opacity:1;stroke:none;stroke-width:100;marker:none;visibility:visible;display:inline;overflow:visible;enable-background:accumulate;font-family:Sans;-inkscape-font-specification:Sans"
         d="m 675.5625,1426.6747 a 50.005,50.005 0 0 0 -48,34.875 L 525,1769.2372 422.4375,1461.5497 a 50.005,50.005 0 1 0 -94.875,31.625 l 144.71875,434.1875 -19.71875,59.1875 -0.34375,1.0313 -0.28125,1.0312 c -9.90829,34.679 -17.69983,36.4661 -21.15625,37.9063 -3.45642,1.4401 -9.94792,0.8437 -30.78125,0.8437 a 50.005,50.005 0 1 0 0,100 c 4.16667,0 35.17517,5.6536 69.21875,-8.5312 33.58712,-13.9947 62.88196,-49.0279 78.15625,-100.6875 l 0.0625,0.031 22.84375,-68.5 a 50.005,50.005 0 0 0 3.90625,-11.75 l 148.25,-444.75 a 50.005,50.005 0 0 0 -46.875,-66.5 z"
         id="path3781"
         inkscape:connector-curvature="0" />
    </g>
  </g>
</svg>
